# xmcd CD database file
# Copyright (C) 1997 Ti Kan
# 
# Track frame offsets:
#     182
#     10590
#     23512
#     35405
#     46860
#     62830
#     74815
#     87145
#     100825
#     112087
#     123125
#     135375
# 
# Disc length: 1958 seconds
# 
# Revision: 1
# Processed by: cddbd v1.4b41PL1 Copyright (c) Steve Scherf et al.
# Submitted via: DiscPlay 4.0.4
# 
DISCID=9407a40c
DTITLE=John Lee Hooker - Guitar Lovin' Man
DYEAR=1900
DGENRE=
TTITLE0=Stuttering Blues
TTITLE1=You Lost A Good Man
TTITLE2=Love My Baby
TTITLE3=Misbelieving Baby
TTITLE4=Drifting Blues
TTITLE5=Wobbling Baby
TTITLE6=Don't Turn Me Away From Your Door
TTITLE7=My Baby Don't Love Me
TTITLE8=I Ain't Got Nobody
TTITLE9=Real Real Gone
TTITLE10=Guitar Lovin' Man
TTITLE11=Talk About Your Baby
EXTD=
EXTT0=
EXTT1=
EXTT2=
EXTT3=
EXTT4=
EXTT5=
EXTT6=
EXTT7=
EXTT8=
EXTT9=
EXTT10=
EXTT11=
PLAYORDER=
